<?xml version="1.0" encoding="UTF-8" standalone="no"?>
<!-- Created with Inkscape (http://www.inkscape.org/) -->

<svg
   width="46.356117mm"
   height="20.685518mm"
   viewBox="0 0 46.356117 20.685518"
   version="1.1"
   id="svg1"
   xmlns="http://www.w3.org/2000/svg"
   xmlns:svg="http://www.w3.org/2000/svg">
  <defs
     id="defs1" />
  <g
     id="layer1"
     transform="translate(-30.238061,-64.708483)">
    <path
       d="m 41.101022,71.961183 c -2.783712,1.854938 -10.86205,2.277478 -10.862961,3.090055 -8.97e-4,0.812578 8.088952,1.231259 10.87433,3.087984 2.788676,1.858919 3.768725,7.248082 4.634011,7.254769 0.865286,0.0065 1.844425,-5.402929 4.637122,-7.263218 2.784521,-1.854841 10.871432,-2.268376 10.87122,-3.079535 -2.1e-4,-0.81115 -7.233922,-0.658407 -10.891291,-3.094867 -3.657371,-2.43646 -3.767561,-7.254255 -4.617051,-7.247886 -0.849491,0.0065 -1.855817,5.393869 -4.64538,7.252698 z"
       style="fill:#e8c547;fill-opacity:1;stroke-width:2.56149;stroke-linecap:round;stroke-linejoin:round"
       id="path2" />
    <path
       d="m 52.164961,64.8051 c 0,0 20.400925,8.569348 20.401101,10.156538 1.75e-4,1.587189 -20.401101,10.180255 -20.401101,10.180255 H 76.59418 V 64.8051 Z"
       style="fill:#ffffff;stroke-width:3.81815;stroke-linecap:round;stroke-linejoin:round"
       id="path3" />
  </g>
</svg>
