<?xml version="1.0" encoding="UTF-8" standalone="no"?>
<!-- Created with Inkscape (http://www.inkscape.org/) -->

<svg
   width="80.846924mm"
   height="55.768143mm"
   viewBox="0 0 80.846923 55.768142"
   version="1.1"
   id="svg1"
   xml:space="preserve"
   xmlns="http://www.w3.org/2000/svg"
   xmlns:svg="http://www.w3.org/2000/svg"><defs
     id="defs1" /><path
     style="fill:#fd5f20;fill-opacity:1"
     d="M 10.609373,55.607009 C 7.4846191,54.758786 4.7645831,51.537224 3.7389421,47.469791 3.2808551,45.653136 3.1816741,44.688216 3.1517921,41.757476 l -0.0279,-2.736093 -0.338129,-0.561451 c -0.685258,-1.137844 -1.86453502,-4.061509 -2.06130802,-5.110396 -0.08989,-0.479152 0.08437,-0.853563 0.59018302,-1.268037 0.565758,-0.463595 1.56427,-0.923415 2.005427,-0.923509 0.418415,-8.9e-5 0.483111,0.08775 0.663115,0.900288 0.06834,0.308502 0.155057,0.526722 0.192697,0.484933 0.03764,-0.04179 0.146735,-0.403308 0.242432,-0.803378 0.447493,-1.870775 1.344851,-4.210716 2.34322,-6.110155 l 0.637216,-1.212333 -0.147912,-0.533426 c -0.08135,-0.293384 -0.520063,-1.820923 -0.974913,-3.394531 -0.45485,-1.573607 -0.857109,-3.023882 -0.893909,-3.222833 -0.05443,-0.294242 -0.205196,-0.481341 -0.808131,-1.002853 -2.043652,-1.767669 -3.399122,-3.288107 -4.22795402,-4.742519 -0.476557,-0.836247 -0.47237,-0.894972 0.08514,-1.194115 0.210108,-0.112739 0.541211,-0.159818 1.12240902,-0.159593 1.073488,4.15e-4 1.382363,0.166832 2.327679,1.254115 0.712236,0.8192 2.284702,2.282534 4.024944,3.745605 1.318598,1.108584 3.6725299,2.995103 3.7309259,2.990088 0.02835,-0.0024 0.269771,-0.295619 0.536484,-0.651521 1.147399,-1.53109 2.713067,-3.369103 3.976451,-4.668149 2.42623,-2.494717 4.459112,-4.1093796 7.789392,-6.1869026 0.223302,-0.139302 0.219468,-0.145169 -0.757814,-1.159819 -1.006334,-1.044811 -1.522236,-1.747235 -1.750096,-2.382835 -0.114732,-0.320038 -0.110108,-0.381197 0.04148,-0.548704 0.278761,-0.308028 1.12476,-0.620943 1.708562,-0.631957 0.855641,-0.01614 1.011195,0.0652 1.416663,0.740808 0.377368,0.628786 2.021819,2.400317 2.228131,2.400317 0.06465,0 0.591248,-0.221383 1.170219,-0.491962 5.985761,-2.797412 12.383348,-4.28316494 19.545212,-4.53910994 7.06232,-0.252387 13.064243,0.773151 17.599973,3.00727594 3.68173,1.813477 6.332281,4.349766 8.449717,8.0854576 1.726027,3.045149 2.738743,7.206326 2.738743,11.253303 v 1.010652 l 0.266713,-0.04513 c 0.950841,-0.160892 2.886661,-0.237985 3.461636,-0.137857 0.753965,0.131297 0.939895,0.293558 0.67368,0.587923 -0.436043,0.48215 -1.191253,0.695629 -3.201152,0.904887 -0.72836,0.07583 -1.253608,0.175204 -1.296977,0.245377 -0.04009,0.06486 -0.102257,0.442047 -0.138154,0.838185 -0.160782,1.774286 -0.813763,4.817572 -1.41112,6.576672 -0.161897,0.476754 -0.294358,0.944791 -0.294358,1.040081 0,0.309015 0.585178,1.665828 0.984125,2.281825 0.459479,0.709463 0.458392,0.961141 -0.0053,1.231225 -0.422418,0.246034 -1.623926,0.2632 -2.167333,0.03096 l -0.364138,-0.155622 0.567673,0.659568 c 1.045445,1.214683 1.478201,1.965558 1.895056,3.288111 0.435442,1.381528 0.317547,2.968283 -0.307092,4.133146 -0.342068,0.637909 -0.989075,1.284532 -1.520517,1.519614 -0.90326,0.399555 -2.293275,0.306948 -2.359763,-0.157215 -0.01733,-0.120948 0.162271,-0.434651 0.464271,-0.81095 0.840898,-1.047779 1.164263,-1.906814 1.164263,-3.092927 0,-0.934514 -0.20235,-1.690831 -0.737412,-2.756203 l -0.433406,-0.862962 -0.69419,0.902135 c -2.008373,2.609983 -4.668293,4.481393 -7.093154,4.990451 -0.796877,0.167291 -2.437878,0.185735 -3.110655,0.03496 -1.4777,-0.33116 -2.515776,-1.277859 -2.926043,-2.66848 -0.239041,-0.810238 -0.216025,-2.409711 0.0535,-3.718203 0.113583,-0.551419 0.466776,-1.800189 0.784873,-2.775045 0.318097,-0.974857 0.578358,-1.807096 0.578358,-1.849422 0,-0.133131 -4.513299,0.130567 -5.012483,0.292865 -0.08178,0.02659 -0.03132,0.351787 0.175929,1.133944 0.726007,2.739904 1.310946,4.549314 2.32029,7.177422 0.130999,0.341091 0.188783,0.645821 0.151005,0.796339 -0.196407,0.782551 -2.331989,1.920183 -2.8295,1.507285 -0.08388,-0.06961 -0.41068,-0.503511 -0.726225,-0.964219 -0.702592,-1.025812 -1.875098,-2.303199 -2.484757,-2.707021 -0.637433,-0.422218 -0.90071,-0.396548 -1.367095,0.133294 -0.755879,0.858724 -1.123272,2.423492 -0.912036,3.884469 0.140934,0.97475 0.502541,2.046199 0.905934,2.684299 0.388786,0.614995 0.347296,0.917945 -0.162188,1.18425 -0.28869,0.150897 -0.566221,0.202778 -1.084731,0.202778 -0.632755,0 -0.723111,-0.02522 -0.983267,-0.274467 -0.371341,-0.355767 -1.127419,-1.878903 -1.329047,-2.677393 -0.193803,-0.767499 -0.203973,-2.316303 -0.01915,-2.915829 l 0.134539,-0.436432 -0.697198,-0.775893 c -0.645342,-0.718185 -2.617424,-3.199253 -2.95885,-3.722517 l -0.148629,-0.227787 -1.453486,0.727956 c -2.676417,1.340442 -5.22573,2.797264 -8.578328,4.902143 -3.709712,2.329088 -5.348801,3.454466 -9.116741,6.259442 -5.653072,4.20833 -7.066912,5.11412 -8.874274,5.685393 -0.981794,0.310326 -2.576349,0.359223 -3.503867,0.107447 z m 3.481182,-1.699105 c 0.597831,-0.213316 1.305065,-0.684112 3.346799,-2.227923 5.202262,-3.93357 6.20582,-4.676102 7.780852,-5.757048 3.682714,-2.527451 9.609671,-6.08674 13.165492,-7.906213 0.439836,-0.225059 0.799898,-0.431687 0.80014,-0.459174 2.41e-4,-0.02749 -0.20687,-0.123765 -0.460248,-0.213952 -0.701634,-0.249741 -1.238,-0.694788 -1.520445,-1.261581 -0.468218,-0.93959 -0.292996,-2.365543 0.420607,-3.422902 l 0.297922,-0.441437 -0.821073,-1.171366 c -0.552731,-0.788542 -0.924881,-1.223217 -1.138704,-1.33002 -0.252948,-0.126344 -0.317656,-0.217906 -0.317752,-0.449613 -7.9e-5,-0.191599 -0.146617,-0.489682 -0.429109,-0.872879 -1.139404,-1.54559 -1.48561,-1.976222 -1.949306,-2.424665 l -0.501428,-0.484933 0.05993,0.678906 c 0.03296,0.373398 0.146569,1.922759 0.252464,3.443024 0.248188,3.56311 0.471967,6.44124 0.576692,7.417139 0.04885,0.455214 0.04672,0.841375 -0.0052,0.93835 -0.04851,0.09063 -0.338548,0.283228 -0.644536,0.427984 -0.680145,0.32176 -2.082125,0.447072 -2.39027,0.213647 -0.222413,-0.168481 -0.195134,0.119402 -0.838081,-8.844696 -0.271371,-3.783507 -0.523946,-6.931028 -0.561278,-6.994492 -0.118877,-0.202087 -1.092784,-1.233671 -1.128895,-1.19575 -0.04661,0.04894 -0.499754,5.511832 -0.682823,8.231791 -0.08078,1.200209 -0.16505,2.317753 -0.187264,2.483431 -0.03546,0.264441 4.14e-4,0.32069 0.293688,0.460542 0.594875,0.283676 0.559498,0.433905 -0.243131,1.032477 -0.167705,0.125068 -0.223514,0.393798 -0.39776,1.91529 -0.111477,0.973395 -0.289209,2.108138 -0.39496,2.521651 -0.780003,3.049992 -3.809929,6.114209 -7.853303,7.94218 -4.371643,1.976378 -8.024321,1.251814 -11.6745929,-2.315834 -0.477036,-0.466237 -0.879603,-0.835439 -0.894595,-0.820447 -0.01499,0.01499 0.01658,0.461924 0.07015,0.993184 0.405452,4.020652 1.884259,7.026702 4.3664819,8.875977 1.312824,0.978064 2.655101,1.357763 3.603521,1.019352 z m 3.188089,-9.117711 c 1.902376,-0.403223 4.012795,-1.705723 5.116413,-3.157728 1.047795,-1.37856 1.423559,-2.508539 1.338457,-4.024943 -0.05106,-0.909885 -0.330561,-2.195326 -0.517202,-2.37867 -0.04583,-0.04502 -0.345182,-0.01646 -0.665238,0.06346 -0.916226,0.228787 -3.158445,0.283193 -3.95307,0.09592 -1.109364,-0.261451 -1.921023,-0.773661 -2.257725,-1.424771 -0.546348,-1.056521 0.04185,-3.223016 1.33208,-4.906376 l 0.493713,-0.644149 -1.105043,-1.039303 c -1.052439,-0.989827 -1.132462,-1.044414 -1.681017,-1.14668 -0.316785,-0.05906 -0.642592,-0.173996 -0.724016,-0.25542 -0.132733,-0.132733 -0.130841,-0.177165 0.0183,-0.42964 0.09149,-0.154878 0.166344,-0.302153 0.166344,-0.327277 0,-0.07687 -2.898987,-2.785496 -2.981263,-2.785496 -0.04235,0 -0.216946,0.233991 -0.388004,0.51998 l -0.311013,0.519979 2.071257,6.196342 c 1.139191,3.407988 2.158224,6.414562 2.264516,6.681275 0.235606,0.591191 0.178976,0.781864 -0.358684,1.2077 -0.717338,0.568142 -2.058907,0.912838 -2.758502,0.708755 -0.306078,-0.08929 -0.432628,-0.42152 -2.8357489,-7.444691 -0.511064,-1.493593 -0.942281,-2.729451 -0.958261,-2.74635 -0.054,-0.0571 -0.83188,2.046077 -1.173026,3.171549 -0.393071,1.296779 -0.835488,3.428793 -1.064222,5.128506 l -0.160048,1.189308 0.417777,0.653437 c 1.31268,2.053135 2.947297,3.886234 4.3557579,4.88465 2.023339,1.434286 4.45577,2.085234 6.317468,1.690633 z m 46.464782,-1.516212 c 1.327487,-0.447198 2.987762,-1.856064 4.391755,-3.726727 0.986364,-1.314221 1.732546,-2.531234 1.663033,-2.712383 -0.08252,-0.215036 -1.349436,-1.06341 -2.223455,-1.488904 -0.438788,-0.213612 -1.236917,-0.540673 -1.773621,-0.726802 -0.914773,-0.317243 -2.711216,-0.745627 -3.126812,-0.745627 -0.149907,0 -0.273006,0.239269 -0.63619,1.236579 -1.368491,3.757892 -1.50434,6.613251 -0.372016,7.819232 0.537953,0.572946 1.115258,0.668722 2.077306,0.344632 z m -15.659532,-3.37585 c 1.082039,-0.731997 2.278561,-1.175263 3.172424,-1.175263 h 0.510204 l -0.617087,-1.963979 c -0.339397,-1.080188 -0.617231,-2.022001 -0.617407,-2.092918 -2.35e-4,-0.09485 -0.08365,-0.110815 -0.315526,-0.06038 -0.594927,0.129393 -0.732315,0.219972 -0.799819,0.527316 -0.09907,0.451066 -0.645795,0.770052 -1.470937,0.858218 -0.50173,0.05361 -0.798378,0.149876 -1.173928,0.380954 -0.276397,0.170069 -0.745966,0.411869 -1.043487,0.537334 l -0.540946,0.228117 0.958421,1.30185 c 0.527132,0.716017 1.036321,1.421871 1.131531,1.568563 0.09521,0.146692 0.190405,0.266713 0.211545,0.266713 0.02114,0 0.288895,-0.169435 0.595012,-0.376522 z m 22.987534,-5.392219 0.318012,-0.721738 -0.332488,-1.154892 c -0.182868,-0.63519 -0.456905,-1.793092 -0.608972,-2.573115 -0.152066,-0.780023 -0.298306,-1.416555 -0.324978,-1.414516 -0.02667,0.002 -0.441289,0.618286 -0.921372,1.369437 -1.053624,1.648525 -1.170017,1.779834 -1.710365,1.92954 -0.550268,0.152455 -1.772533,0.139535 -2.266087,-0.02395 -0.539073,-0.178568 -0.55659,-0.438502 -0.06554,-0.972471 0.865785,-0.941448 1.799633,-2.318755 2.445255,-3.606442 0.371447,-0.740847 0.675359,-1.384595 0.675359,-1.430552 0,-0.04596 -0.391271,-0.08356 -0.869491,-0.08356 -0.535441,0 -1.042001,-0.05857 -1.318515,-0.152448 -0.246964,-0.08385 -0.46109,-0.138402 -0.475836,-0.121233 -0.121921,0.141951 -2.693145,7.072348 -2.64263,7.122863 0.01779,0.01779 0.35705,0.07807 0.75392,0.133961 1.040628,0.146554 2.705384,0.556289 3.825152,0.941458 0.930106,0.31993 2.920852,1.247393 3.019272,1.406639 0.101773,0.164672 0.19308,0.04599 0.499299,-0.648979 z m -26.213435,0.217866 c 0.480083,-0.165305 0.890098,-0.314158 0.911143,-0.330784 0.06508,-0.05141 -0.768589,-2.0932 -0.982418,-2.406105 -0.314953,-0.460882 -0.776283,-0.929246 -1.063502,-1.079717 -0.573981,-0.300703 -1.487801,-0.06158 -2.064323,0.540179 l -0.277772,0.289931 1.003658,1.480321 c 0.552012,0.814177 1.072444,1.577346 1.156516,1.695933 0.08797,0.124084 0.214615,0.193365 0.298338,0.163205 0.08001,-0.02882 0.538276,-0.187657 1.01836,-0.352963 z m -22.45229,-0.811554 c 0.06583,-0.06583 -0.09579,-0.381864 -0.493698,-0.965401 -0.690156,-1.012129 -1.614147,-2.176856 -1.726925,-2.176856 -0.04315,0 -0.221962,0.311357 -0.397368,0.691904 -0.546987,1.186704 -0.38934,2.102566 0.425622,2.472682 0.346157,0.157207 2.029982,0.140057 2.192369,-0.02233 z m 27.581998,-0.627699 c 0.164458,-0.149278 -2.371874,-8.012023 -4.377687,-13.571029 -1.402134,-3.885939 -2.16866,-6.238559 -2.189736,-6.720735 -0.01644,-0.376152 0.0011,-0.400316 0.465835,-0.641791 0.40272,-0.209251 0.612834,-0.250922 1.2652,-0.250922 1.078964,0 1.215628,0.102091 1.445742,1.080001 0.214782,0.912757 0.744345,2.510991 1.71432,5.173863 l 0.717041,1.968495 0.06424,-0.474182 c 0.03533,-0.2608 0.06807,-0.7229 0.07274,-1.026888 0.02265,-1.473487 0.482558,-3.863478 1.068385,-5.552062 1.253942,-3.6143576 3.99759,-6.7362296 6.747533,-7.6777086 1.048793,-0.359069 2.576259,-0.379333 3.540011,-0.04696 1.590872,0.548643 2.505756,1.434791 3.01309,2.918449 0.309977,0.906504 0.30972,2.5139106 -6.05e-4,3.7824766 -0.268647,1.098195 -1.19613,3.844123 -1.863119,5.515997 -0.263325,0.660051 -0.465364,1.213502 -0.448975,1.229892 0.01639,0.01639 0.334679,-0.06124 0.70731,-0.172508 1.004148,-0.29984 2.883729,-0.295859 3.653998,0.0077 1.045932,0.412251 1.333066,1.025819 1.150012,2.457435 -0.09955,0.778525 -0.470084,2.343313 -0.727611,3.072715 -0.08241,0.233413 -0.149837,0.45747 -0.149837,0.497906 0,0.04043 0.250953,-0.0269 0.557673,-0.149626 0.30672,-0.12273 0.928647,-0.299402 1.382059,-0.392604 0.453412,-0.0932 0.858267,-0.198352 0.899677,-0.233667 0.124942,-0.106553 0.340885,-2.082016 0.413573,-3.783393 0.0376,-0.880153 0.104781,-1.696387 0.149285,-1.813853 0.240703,-0.635316 1.991742,-0.787103 3.016047,-0.261444 l 0.259665,0.133257 0.0313,2.611863 c 0.01721,1.436525 0.05312,2.631059 0.07979,2.654521 0.02667,0.02346 0.218764,0.02148 0.426874,-0.0044 l 0.37838,-0.04705 -0.0642,-1.710006 c -0.03531,-0.940503 -0.149531,-2.29142 -0.253827,-3.002038 -0.709107,-4.831453 -3.028806,-9.2642646 -6.383386,-12.1982846 -3.09035,-2.702916 -7.452979,-4.485169 -12.579791,-5.139189 -1.870501,-0.238617 -6.694694,-0.290107 -8.874274,-0.09472 -5.975566,0.535681 -11.196,1.965683 -16.050622,4.396652 l -1.066192,0.533899 0.448855,0.399554 c 0.24687,0.219755 0.862644,0.781439 1.368387,1.248187 0.784056,0.723601 0.968604,0.848632 1.2526,0.848632 0.418991,0 0.565835,0.144974 0.565835,0.55863 0,0.255789 0.101105,0.434105 0.470176,0.8292346 1.806607,1.934167 5.178955,5.953523 6.389576,7.615461 1.054356,1.447418 1.436175,2.178986 1.639456,3.141216 0.174413,0.825584 0.07136,1.763056 -0.266649,2.425599 -0.418192,0.819725 -1.437187,1.694366 -2.413363,2.07148 -0.240042,0.09273 -0.450822,0.179525 -0.468399,0.192873 -0.01758,0.01335 0.198817,0.332652 0.480878,0.709564 0.50491,0.674704 0.515897,0.68257 0.710865,0.508976 2.714728,-2.417132 4.447189,-3.846315 5.022172,-4.143008 0.928064,-0.478886 2.661048,-0.406382 3.082139,0.128948 0.235918,0.299922 0.728692,1.829072 1.19783,3.717042 0.431181,1.735222 1.481796,6.138635 1.565055,6.559573 0.05717,0.289051 0.08373,0.307278 0.36993,0.253888 0.169584,-0.03164 0.347217,-0.09281 0.39474,-0.135949 z m 4.859911,-0.680521 c 0.480084,-0.05726 1.763442,-0.133275 2.851907,-0.168931 l 1.979028,-0.06483 0.986537,-2.618638 c 1.178491,-3.128154 2.181667,-5.97882 2.525657,-7.177008 0.241123,-0.839884 0.438099,-2.473158 0.298268,-2.473158 -0.329839,0 -1.746541,1.093933 -2.349139,1.81393 -1.063331,1.270493 -2.163747,3.336781 -2.712756,5.093833 -0.511257,1.63623 -0.54493,1.695973 -1.029419,1.826432 -0.821179,0.221121 -2.500967,-0.123117 -2.663149,-0.545757 -0.08233,-0.214561 0.191641,-1.374437 0.654849,-2.772308 0.415809,-1.254829 1.068687,-2.942513 2.738483,-7.078948 0.616819,-1.52799 1.297406,-3.295571 1.512416,-3.927957 1.213434,-3.568952 1.463499,-5.9769016 0.753326,-7.2540046 l -0.219035,-0.39389 -0.651442,0.0077 c -1.524885,0.01808 -3.692275,1.624111 -5.192862,3.8478836 -1.040739,1.542308 -1.730625,3.273024 -2.213138,5.552089 -0.249881,1.180274 -0.267109,1.415731 -0.269655,3.68549 -0.003,2.635967 0.06272,3.26111 0.779514,7.419474 0.303,1.757809 0.935269,4.881029 1.055334,5.21303 0.0529,0.146267 0.06751,0.146462 1.165276,0.01554 z M 41.146213,29.952969 c 1.061474,-0.353844 2.154497,-0.551487 3.160086,-0.571413 l 0.903105,-0.01789 -0.05983,-0.339453 c -0.09964,-0.565342 -0.91991,-4.006693 -0.966011,-4.052794 -0.04731,-0.04731 -0.0941,-0.0089 -2.071754,1.698601 -0.755367,0.6522 -1.676523,1.412662 -2.047012,1.689915 l -0.673616,0.504097 0.45422,0.661522 c 0.249821,0.363837 0.486034,0.661742 0.524918,0.66201 0.03888,2.69e-4 0.388035,-0.105297 0.775892,-0.23459 z M 24.210982,28.507737 c 0.06034,-0.756122 0.09615,-1.390225 0.07959,-1.409118 -0.03844,-0.04385 -1.295028,0.633207 -1.594622,0.859191 l -0.226513,0.170859 0.650905,0.746324 c 0.357998,0.410478 0.702043,0.82821 0.764546,0.928292 0.0625,0.100082 0.136759,0.158849 0.165014,0.130594 0.02826,-0.02826 0.100741,-0.670019 0.161078,-1.426142 z m 48.963948,-2.2234 c 0.03604,-0.440077 0.08821,-0.879799 0.115933,-0.977162 0.04161,-0.146134 0.0023,-0.171519 -0.225165,-0.14548 -0.15156,0.01735 -0.271136,0.05336 -0.265724,0.08004 0.0054,0.02667 0.04142,0.4522 0.08002,0.94562 0.0386,0.493419 0.106006,0.897126 0.149792,0.897126 0.04379,0 0.109101,-0.360063 0.145143,-0.80014 z m -49.730793,-0.436785 0.990049,-0.04897 0.04896,-0.399661 c 0.13383,-1.092427 0.353484,-3.674667 0.315786,-3.712366 -0.02362,-0.02362 -0.364476,0.148131 -0.757457,0.381668 -0.39298,0.233537 -1.521923,0.874119 -2.508762,1.423516 -0.986839,0.549397 -1.937071,1.084772 -2.111626,1.189723 l -0.317375,0.190819 0.844658,0.796686 0.844658,0.796686 0.830529,-0.284569 c 0.627527,-0.215014 1.072521,-0.296538 1.820578,-0.333536 z m 14.1372,-1.810791 c 0.25559,-0.106792 0.344241,-0.211276 0.390877,-0.460686 0.228284,-1.220868 -1.141077,-3.497734 -4.797031,-7.976124 -1.018532,-1.247659 -1.022545,-1.251164 -1.051272,-0.918328 -0.01586,0.183762 0.06091,1.573301 0.170597,3.087866 l 0.199435,2.753753 1.574152,1.607599 c 0.865784,0.884179 1.683717,1.669612 1.817628,1.745407 0.531245,0.300688 1.207022,0.36466 1.695614,0.160513 z M 20.417369,21.404872 c 1.600279,-0.936547 3.420446,-1.951192 4.044815,-2.254767 0.624369,-0.303576 1.137186,-0.580113 1.139592,-0.614527 0.0024,-0.03441 -0.381093,-0.579964 -0.852223,-1.212332 -1.193704,-1.602237 -1.604764,-2.306275 -1.48127,-2.537026 0.303528,-0.567147 1.378858,-1.186257 2.322489,-1.33715 0.362813,-0.05802 0.377471,-0.04841 0.701206,0.459701 0.407982,0.640333 2.619743,3.404364 2.677741,3.346366 0.02318,-0.02318 0.01102,-1.467604 -0.02702,-3.209823 l -0.06917,-3.16767 -1.548385,-1.4982556 c -0.851612,-0.824041 -1.600409,-1.498257 -1.663995,-1.498257 -0.129208,0 -1.441651,0.879032 -2.391988,1.602077 -1.975893,1.5033186 -4.646343,4.0250226 -6.263252,5.9143836 -1.163036,1.359009 -3.329101,4.212685 -3.329101,4.385914 0,0.05213 0.490995,0.533389 1.0911,1.06947 0.600104,0.536081 1.396607,1.260698 1.770005,1.61026 0.373398,0.349561 0.744372,0.637565 0.824386,0.640007 0.08001,0.0024 1.454799,-0.761824 3.055078,-1.698371 z"
     id="path1" /></svg>
